/* XPM */
static char * ball_xpm[] = {
"16 16 8 1",
" 	c none",
".	c #71C671C69658",
"X	c #5144596579E7",
"o	c #30C230C26185",
"O	c #8E388E38A699",
"+	c #AEBAAEBABEFB",
"@	c #2081208138E3",
"#	c black",
"     ..XXXo     ",
"   OOO...Xooo   ",
"  +++OO..Xoo@@  ",
" +++++O..XXoo@@ ",
" +++++O...Xo@@@ ",
"O+++++O..XXoo@@@",
"O++++OO..Xoooo@@",
".OO+OO.XXXooo@@@",
".OOOOO.X.Xooo@@@",
"X....X.XXooo@@@@",
"oXXXXXXooooo@@@#",
" oXXXoooooo@@@@ ",
" oooooo@@@@@@@# ",
"  ooo@@@@@@@@@  ",
"   @@o@@@@@@@   ",
"     @@@@@#     "};
