/* XPM */
static char * ball2_xpm[] = {
"16 16 7 1",
" 	s None	c None",
".	c #38E38E38FFFF",
"X	c #104071C6F7DE",
"o	c #00005144DF7D",
"O	c #69A6B6DAFFFF",
"+	c #8E38CF3CFFFF",
"@	c #000038E38E38",
"     .XoXoo     ",
"   OO.O...XXX   ",
"  O++OOOO..XXX  ",
" +++++OOO.XXo@@ ",
" ++++++.O.XXoo@ ",
"O+++++OO..XXoo@@",
"OO+++OO.O.Xooo@@",
"OOOOOO....Xoo@@@",
".OOOOO...XXoo@@@",
"...O...XXXooo@@@",
"X....X.XXXXXo@@@",
" XXXXXXXXoo@@@@ ",
" XoXXooooo@@@@@ ",
"  ooooo@@o@@@@  ",
"   @o@@o@@@@@   ",
"     @@@@@@     "};
