/* XPM */
static char * ball3_xpm[] = {
"14 14 7 1",
" 	c #000000000000",
".	c #38E38E38FFFF",
"X	c #104071C6F7DE",
"o	c #00005144DF7D",
"O	c #69A6B6DAFFFF",
"+	c #8E38CF3CFFFF",
"@	c #000038E38E38",
"    .XoXoo    ",
"   O.O...XX   ",
"  O+OOOO..XX  ",
" +++++.O.Xoo@ ",
"O++++OO..Xoo@@",
"OO++OO.O.Xoo@@",
"OOOOO....Xo@@@",
".OOOO...XXo@@@",
"......XXXoo@@@",
"X...X.XXXXo@@@",
" XoXooooo@@@@ ",
"  oooo@@o@@@  ",
"   o@@o@@@@   ",
"    @@@@@@    "};
