/* XPM */
static char * down1_xpm[] = {
"25 50 8 1",
" 	c #CF3CC71BBEFB",
".	c #71C669A669A6",
"X	c #861779E769A6",
"o	c #FBEEFBEEFBEE",
"O	c #9E7996588E38",
"+	c #041004100410",
"@	c #FFFFFFFF0000",
"#	c #CF3C8E3869A6",
" ................X.....X.",
"  X.X....X.X....XX...X.X.",
"o oo...........XX........",
"o o OOO  OOOOOOO  OOO....",
"oo oOOOOOOXX......OOO....",
" o oOOOOOO..++.+..OOO....",
"ooo O OOO@@@@@@@.+OO ....",
" o oOXOOO@@@@@@@.+.OX....",
"oooo  O X@@@@@@@.+OOO....",
"ooooXXOXO@@@@@@@.+XOO....",
"ooooX#OOO@@@@@@@+..OO...X",
"ooo  O O#@@@@@@@X+.OO....",
"oooo  O  @@@@@@@.+OOO....",
"   o o  O@@@@@@@...OO...X",
"o oo     @@@@@@@+.OO XXXX",
"O  o    O@@@@@@@..O  XXXX",
" oo O   O@@@@@@@.+XO .XXX",
"o oo   OO@@@@@@@.+OOOX..X",
"ooooO O O@@@@@@@..OO .XX.",
"ooooO OOO@@@@@@@..XO ..X.",
"ooo  OOOO@@@@@@@.+OOO.XX.",
"ooooOOOOO@@@@@@@...OO....",
"oooo  O O@@@@@@@++#OO....",
"oooo   OO@@@@@@@..XOO....",
"ooooXXOXX@@@@@@@.+.......",
" o   OX+.@@@@@@@.+++.++..",
"o   O@@@@@@@@@@@@@@@.+...",
"oO  #X@@@@@@@@@@@@@.+..+.",
"o OOX.@@@@@@@@@@@@@......",
" oooOOO@@@@@@@@@@@.+...+X",
"ooO OOO@@@@@@@@@@@.XX..X.",
"  X O O@@@@@@@@@@@+.O....",
"o  o OOO@@@@@@@@@...O...X",
"o    O O#@@@@@@@@+XXO.XX.",
"o O O OOX@@@@@@@..XOO.X..",
"   oOOOOO#@@@@@@+..OO....",
"  oo   OO @@@@@...OOO....",
" O   OOOOO@@@@@+XXOO ....",
" O  OXO.XX@@@@@.XOO  ....",
"  o #OO  OO@@@X.O   O....",
"    OXOOO O#@@.XOOOOOX...",
"O o OOO OOOO@X.OO O O....",
"   oO OO O O@OOO OOOO....",
"ooooOO OOOOO OO   O O....",
"o o O O  O OOOO  OOOO....",
"o o OOOOOOO O OOO O O....",
"oo o OOOO OOOOO O OO ....",
" oo X#O OOOO O O#OO O....",
"ooooo oo    o  o  o    ..",
"oooo     oooooo o   o oo."};
