/* XPM */
static char * down_xpm[] = {
"50 50 13 1",
" 	c #FBEEFBEEFBEE",
".	c #CF3CEFBEDF7D",
"X	c #8617B6DA9658",
"o	c #79E7AEBA8E38",
"O	c #69A69E798617",
"+	c #30C2410338E3",
"@	c #8E38BEFB9E79",
"#	c #F7DED0FC0000",
"$	c #041004100410",
"%	c #79E7AEBA9658",
"&	c #38E351444924",
"*	c #30C249244103",
"=	c #71C6A69969A6",
"   .XXooooOOoOOOOOOOOOOOoOOOOOOOOOOOOOOOOOOOOOOO+O",
"    .XXooOOOOOOOOOOOOOOOOOOOOOOOOOOOOOOOOOOOO+O+O+",
".. ...XXXX@oXXXooooOoOOOOOOOOOOOOOOOOOOOOOO+OO+O++",
"XX.  ...@@@XXXXXXXXXooXooOoOOOOOOOOOOOOOOOOO+O++++",
"XXX....@@XXX@XXXXooooooOooOOOOOOOOOOOOOO+O+OO+++++",
"oXXX.@XXXXXXXoooooooOOoOOOoOOOOOOOOOOOOOoOO+O+++++",
"OOOoXXXoXooooooooooXXXXXXXXXXXXooooooOoOoOOO+O++++",
"OOOOoOooooXooXooXoXXXXXX@@X@@X@XXXoXoXooXoOO++++++",
"OOOXoOOoooooXoXXoXooXXXX@X@XXXXXXXXXoXooOOOO++++++",
"OOOOOOOooooXoooXoo@@@@@@@@@@@@@@XXoXoXoXoOOO++++++",
"OOOOOOOOOoOooooo@o#############$$%ooOOOOOoOO++++++",
"OOOOOOOOooooooooo###############$$%OOooooOOO++++++",
"OOOOOOOXooooooooo###############$$%oOOOOOOO++O++++",
"OOOOXOOOooooooooo###############$$%OooOOOOOO++++++",
"OOOOOOOoOoooooooo###############$$%OOOOOO&OO++++++",
"OOOOXOOoooooooXoo###############$$%oOOOOOOO+++++++",
"OOOOOOOXOooooooXo###############$$%OOOOOOOOO++++++",
"OOOOOOoOooOooXooo###############$$%ooOoOOO*O++++++",
"OOOOXOOoOoXOooXoo###############$$%OooOOOOO+O+++++",
"OOOOOOOOoOooooooo###############$$%oooooOOOO++++++",
"OOOOXOoooOooooooo###############$$%ooooooOO+++++++",
"OOOOOOOOooooooooo###############$$%XoooooOOO++++++",
"OOOOXOooOoooooooo###############$$%XXoooooOOO+++++",
"OOOOOOoOooooooooo###############$$$$$$$$$%OO++++++",
"OOOOXOOooO#############################$$%oO++++++",
"OOOOOOXooO#############################$$%oO++++++",
"OOOOXOOoOXX###########################$$$XoO++++++",
"OOOOOOOoooXX#########################$$$XXoO++++++",
"OOOOXOOooXXXX#######################$$$oXXoO++++++",
"OOOOOOOXoXOXXX#####################$$$XoXXOO+O++++",
"OOOOOOOooooXoXX###################$$$XXoXXoO++++++",
"OOOOXOOoooXXXXXX#################$$$OXXXXXoO++++++",
"OOOOOOOXoXooXXXXX###############$$$XoXXoXXoO++++++",
"OOOOOOOoooXoXooXXX#############$$$XXXXXXXXOO++++++",
"OOOOOOOoooXXXXXXXXX###########$$$@XXXXoooXoOO+++++",
"OOOOXOOoooXoXoXXXXXX#########$$$@XXXXXXXooOO++++++",
"OOOOOOOXooXXoXXoXXXXX#######$$$@XXXXXXXXoXOO++++++",
"OOOOOOOoooXoXoXXXXXXXX#####$$$XXooooooooooOO++++++",
"OOOOOOOoooooXXXXXXXXXXX###$$$XoXoXoXoooXooOO++++++",
"OOOOOOOooXXXoXoXXXXX@XXXXX$$XXXXXXXoXXXoooO=++++++",
"OOOOOOOXXoXXXXXXXXX@X@@@XXX@XXXXXoXXooooooOO++++++",
"OOOXOOOoXXoXXoXXoXXXXXXXX@XXXXXXXXXXXXXXooOO+O++++",
"OOOOOOOooooOoOoOoOooooooooooooooooooooooXOOO++++++",
"OOOOO+O+OOOOOOO&=OOOOOOOOOOOOOOOOOOOOOOOOOOO++++++",
"OOO+O+O+O+*++++**+++++++++++++++++++++++++++++++++",
"OOOO+O++++++++++++++++++++++++++++++++++++++++++++",
"+O++O+++++++++++++++++++++++++++++++++++++++++++++",
"OOO+++++++++++++++++++++++++++++++++++++++++++++++",
"O+++++++++++++++++++++++++++++++++++++++++++++++++",
"+O+O++++++++++++++++++++++++++++++++++++++++++++++"};
