/* XPM */
static char * go_xpm[] = {
"70 60 7 1",
" 	c #000000000000",
".	c #082059650000",
"X	c #104096580000",
"o	c #1861C71B0000",
"O	c #2081EFBE0000",
"+	c #000028A20000",
"@	c #104079E70000",
"                                                                      ",
"                                                                      ",
"                                                                      ",
"                                                                      ",
"                                                                      ",
"                                                                      ",
"                                                                      ",
"                                                                      ",
"                                                                      ",
"                                                                      ",
"                                                                      ",
"                                                                      ",
"                                                                      ",
"                                                                      ",
"                                                                      ",
"                                                                      ",
"                                                                      ",
"                                                                      ",
"            .XoOOOoo.+  X          .oOOOOoo.                 +oOo     ",
"          +oOOX+  +@oOooo        .OOO@+  @OOO.               oOOOX    ",
"         XOOO.       XOOo       XOOO.     +OOOX              OOOOo    ",
"        XOOOX         XOo      XOOOX       @OOOX             OOOOX    ",
"       .OOOO           oo     .OOOO+        OOOO.            oOOO@    ",
"       OOOOX           .o     oOOOo         oOOOO            @OOO+    ",
"      @OOOO.            X    .OOOO@         @OOOO.           .OOO     ",
"      oOOOO+                 XOOOO@         .OOOOX           +OOo     ",
"      OOOOO                  oOOOO+         +OOOOo            OO.     ",
"     .OOOOO                  OOOOO.         .OOOOO            XO+     ",
"     +OOOOO                  OOOOO+         +OOOOO            @O      ",
"     .OOOOO                  OOOOO.         .OOOOO            +o      ",
"     +OOOOO      .@OOOOOOo@  oOOOO+         +OOOOo            +X      ",
"      oOOOO+       +OOOOo    XOOOO@         @OOOO@             .      ",
"      XOOOO.        OOOOo    .OOOO@         @OOOO+                    ",
"      .OOOO@        OOOOo     oOOOo         oOOOo                     ",
"       @OOOo        OOOOo     +OOOO+       +OOOO+            +oOo     ",
"        oOOO.       OOOOo      XOOOX       @OOO@             oOOOX    ",
"         XOOO+      OOOOX       XOOO+     +OOO@              OOOOo    ",
"          .OOO@+  +.OOOo@        .oOO@+  @OOo.               oOOO@    ",
"            .XoOOOOoX@+            .XoOOOoX.                  Xo@     ",
"                                                                      ",
"                                                                      ",
"                                                                      ",
"                                                                      ",
"                                                                      ",
"                                                                      ",
"                                                                      ",
"                                                                      ",
"                                                                      ",
"                                                                      ",
"                                                                      ",
"                                                                      ",
"                                                                      ",
"                                                                      ",
"                                                                      ",
"                                                                      ",
"                                                                      ",
"                                                                      ",
"                                                                      ",
"                                                                      ",
"                                                                      "};
