/* XPM */
static char * goal_xpm[] = {
"70 60 7 1",
" 	c #000000000000",
".	c #000008200000",
"X	c #082069A60000",
"o	c #104096580000",
"O	c #082038E30000",
"+	c #2081EFBE0000",
"@	c #1861C71B0000",
"                                                                      ",
"                                                                      ",
"                                                                      ",
"                                                                      ",
"                                                                      ",
"                                                                      ",
"                                                                      ",
"                                                                      ",
"                                                                      ",
"                                                                      ",
"                                                                      ",
"                                                                      ",
"                                                                      ",
"                                                                      ",
"                                                                      ",
"                                                                      ",
"                                                                      ",
"                                                                      ",
"                                                                      ",
"                                                                      ",
"                                                                      ",
"                                                                      ",
"       .XXoX.  O     ..OoXoO            O       OOOOOOO        XX.    ",
"     .o+@XOO@@oX    .o+@OOX+@O         O+        o+++O        X++o    ",
"    O++o     O+X   .@+@... O++X        o+O.      O+++         X++@    ",
"   .@++.     .oX   o++X     @++O      .++@       O+++         O++o    ",
"   o++o        X  O+++      X++o      o+++O      O+++        ..++O    ",
"   +++X           o++@     .O+++.    .o@++o      O+++          @+O    ",
"  O+++O           @++@      O+++O    XXX+++.     O+++          o@     ",
"  O+++O           @++@      O+++O    @ .+++o     O+++          O@     ",
"  O+++O   .XXoXoO o++@      O+++O   OX  o+++.    O+++         ..o     ",
"   @++X     @++o  X++@      X++@    @ooXo+++X    O+++      OO   O     ",
"   o++o     @++X  .+++.     o++o   OoOOOOo++@    O+++      o.         ",
"   .@++.    @++o   X++X     @+@.   o.    O+++O   O+++     .+. .@+O    ",
"    O@+o.   o++X    o++O   o+@O   .@      @++@   O+++.  ..@+  o++@    ",
"     .X+@oXo+@o.     O@@oX@+o.   O@+o.  .O@+++X.O@+++@@@@++@  O++X    ",
"        .OOO           .OOO                                    .O     ",
"                                                                      ",
"                                                                      ",
"                                                                      ",
"                                                                      ",
"                                                                      ",
"                                                                      ",
"                                                                      ",
"                                                                      ",
"                                                                      ",
"                                                                      ",
"                                                                      ",
"                                                                      ",
"                                                                      ",
"                                                                      ",
"                                                                      ",
"                                                                      ",
"                                                                      ",
"                                                                      ",
"                                                                      ",
"                                                                      ",
"                                                                      ",
"                                                                      ",
"                                                                      "};
