/* XPM */
static char * left_xpm[] = {
"50 50 13 1",
" 	c #F7DEFFFFF7DE",
".	c #FBEEFBEEFBEE",
"X	c #AEBACF3CB6DA",
"o	c #71C6A6998617",
"O	c #38E359654924",
"+	c #79E7AEBA9658",
"@	c #30C2410338E3",
"#	c #8617B6DA9E79",
"$	c #492471C65965",
"%	c #69A6965879E7",
"&	c #F7DED0FC0000",
"*	c #8617B6DA9658",
"=	c #041004100410",
"  .XXoooooooooooooooooooooooooooooooooooooooooOoOO",
". . X+ooooooooooooooooooooO+ooooooooooooooOooOoOoO",
" X ..X+ooooooooooooooooooo+oooooooooooooooooooOOOO",
"+XX  .XX+ooooooooooooooooooooooooooooooooOoOoOOOOO",
"o+XX. X+oooooooooooooOoooooooooOooooooooo+ooOOOOO@",
"oo+XXX+#ooooooooooooo+ooooooooo+ooooooooooOoOOOO@O",
"ooo++++++o#++o#ooooo#oooooooooooooooooooooo$%OOO@@",
"oooo#ooo++++++++#++++++#+++++oooooooooo+ooo%OOOO@@",
"oooooo#+o+++++++++++o+++o+o+o+++o++o++ooooo$OOO@@O",
"ooo#oooo++#++++++++++++++++++ooo+o+ooo++ooo$$OO@@@",
"oooooooo++++++++++++o++&&###+++o+oo+++oo+oo%OOOO@@",
"oooooo+o+++#++#++#++++&&&###oo+o+o++ooo+oo+$OOO@@@",
"oooooooo+++++++++++++&&&&###++o+o+oo+++o+oo%OOO@@O",
"ooooooo+++++++++++++&&&&&###o++o+o++oo+oooo$OOO@@@",
"oooooooo+++++++++++&&&&&&###+o+o++o++o+o+oo%OOO@@@",
"oooooooo+++#++#+++&&&&&&&###++o++o++o+o+ooo$OOO@@@",
"ooooooo++#++++#++&&&&&&&&###+++++++++++oooo%OOO@@@",
"oooooooo#++#+#++&&&&&&&&&&&&&&&&&&&&&&++ooo$OOO@@@",
"oooooooo+#+#+++&&&&&&&&&&&&&&&&&&&&&&&&+++o%OOO@@@",
"ooooooo++++#++&&&&&&&&&&&&&&&&&&&&&&&&&+++o%OO@@@@",
"oooooo+o#+#++&&&&&&&&&&&&&&&&&&&&&&&&&&++++%@OO@@@",
"o$+%ooo++#*+&&&&&&&&&&&&&&&&&&&&&&&&&&&+++*%OOO@@@",
"oooooo+o##*&&&&&&&&&&&&&&&&&&&&&&&&&&&&+++*%OO@@@@",
"ooooo+o+##&&&&&&&&&&&&&&&&&&&&&&&&&&&&&+++*%OOO@@@",
"oooooo++#X&&&&&&&&&&&&&&&&&&&&&&&&&&&&&+++*%@O@@@@",
"oooooo++##&&&&&&&&&&&&&&&&&&&&&&&&&&&&&+++o%OO@@@@",
"ooooo+o*##=&&&&&&&&&&&&&&&&&&&&&&&&&&&&++++%OO@@@@",
"oooooo++##==&&&&&&&&&&&&&&&&&&&&&&&&&&&+++o%@O@@@@",
"ooooooo+##===&&&&&&&&&&&&&&&&&&&&&&&&&&+++o$OO@@@@",
"oo%oooo++##===&&&&&&&&&&&&&&&&&&&&&&&&&+++o$OO@@@@",
"oo%ooooo++##===&&&&&&&&&&&&&&&&&&&&&&&&++++$OO@@@@",
"oooooooo++++#===&&&&&&&&&&&&&&&&&&&&&&=+++o$OO@@@@",
"oooooooo#++#+#===&&&&&&&&==============o+oo$OO@@@@",
"oooooooo+++++++===&&&&&&&=============++ooo$OO@@@@",
"oo%ooooo++++++++===&&&&&&=+++++++++++++o++o$OO@@@@",
"oo$ooooo+#+++++++===&&&&&=#++++++++o++o+ooo$OO@@@@",
"oo+oooo+++++++++++===&&&&=++++++++++oo+o+oo$OO@@@@",
"ooooooo++++++++++++===&&&=++++o++o+o+oo+oooOOO@@@@",
"ooooooo++++++++#++#+===&&=+++o+o++o+o+o+ooo$O@@@@@",
"ooOoo%oo+++++++++++++=====+oo+o+oo+ooo+ooooOOO@@@@",
"oO+ooOo+++++++++++++++====ooooooo+oo+ooooo%OOO@@@@",
"o+ooo+o++++++++++++++oo+++o%%%%o%ooooooo%o%OOO@@@@",
"oooooOoooo+o++++++++o+o%%%%%%%%%%%%o%%o%%%%OO@@@@@",
"+OooOooOooOoO%O%$%$$$$$$$$$$$$$$$$$%%O%%@%OOO@@@@@",
"ooOOoOOOOOOOOOOOO@OOOOOOOOOOOOOOOOOO@OO@OOO@O@@@@@",
"ooooOoOOOOOOOOOOOOOOOOOOO@O@O@OOOOOOOOOOOOOO@@@@@@",
"oOOOO@OO@O@@@O@O@O@O@O@O@@@@@@@@@O@@@@@@O@@O@@@@@@",
"oOoOOO@@@@@@@@@@@@@@@@@@@@@@@@@@@@@@@@@@@@@@@@@@@@",
"OoOOO@@@@@@@@@@@@@@@@@@@@@@@@@@@@@@@@@@@@@@@@@@@@@",
"OOOO@O@@@@@@@@@@@@@@@@@@@@@@@@@@@@@@@@@@@@@@@@@@@O"};
