/* XPM */
static char * left1_xpm[] = {
"50 25 8 1",
" 	c #FBEEFBEEFBEE",
".	c #CF3CC71BBEFB",
"X	c #9E7996588E38",
"o	c #71C669A669A6",
"O	c #861779E769A6",
"+	c #CF3C8E3869A6",
"@	c #FFFFFFFF0000",
"#	c #041004100410",
"  .  . ...X....   .  .           .X .       .   ..",
"   .   ....X........ .X..       . ...     .  . ..o",
"   . . . . .. .X..XX X..         .  .       . . Oo",
"  .  . . ... . .. .. X...    .  .     .   . . . oo",
"..XXXXXXXXOXX.XX.XXXXOXO.O.XXX.X.X.. X.OO.+XXXXoOo",
". OXX.X.X+XXX.X.X.XXXoO@XO...X........X+OXXXXXXOoo",
". XXXX.XXXXXX.XXXX.XX@@@OX.XXXXX.......XXXXX.XXooo",
". .XX.XX.X.oXXXXXX@@@@@@#OX.XX.XX.....XOO.XXXX.ooo",
"..OXX.XXXX.oXXXX@@@@@@@@oOXXXXXX.XX.X.OXXOXXXX.ooo",
" .X.XX.X..OOX.@@@@@@@@@@@@@@@@@@@@@@@@@@@@@@XXXoOo",
" .XX.XXXXXX@@@@@@@@@@@@@@@@@@@@@@@@@@@@@@@@@oOXooo",
" .X.XXX.X@@@@@@@@@@@@@@@@@@@@@@@@@@@@@@@@@@@oOXoOo",
" .XXX.X@@@@@@@@@@@@@@@@@@@@@@@@@@@@@@@@@@@@@#oXooo",
" ..X.XXXO@@@@@@@@@@@@@@@@@@@@@@@@@@@@@@@@@@@#OXooo",
" ..XXXXXooO@@@@@@@@@@@@@@@@@@@@@@@@@@@@@@@@@ooXooo",
"  X.X..XXOoo#o@@@@@@@@@@@@@@@@@@@@@@@@@@@@@@#oXOoo",
"..OXX...XXXOOo#o@@@@@@@@oooooooooooooooooooooo.OOo",
"..X..XXX.X.XOoOo#o@@@@@@####o##o#o#o########ooXoOO",
". XXXX.XXX.XXXoOOoo#o@@@#oX+OXOXXOXXXXOOOXOXO.Xooo",
" X..X.XX.X..XXXXoooOo#o@#oXXOX.XXX.XXXXXXXXXXXXooo",
" XX.XXX.XX.X.XXXXXXOooo#ooXXXX..X..XXXXXXXO.XXXooo",
" .ooooooooOoooooooooo#oo#oooooooOoOOOoOoooooooooOo",
"..oooooooooooooOOooooooo#ooooOoOoOOOoooooooooooooo",
" oooooooooooooooOooO#ooooooooOOOoOOOooooooooooooOO",
"OooooooooooooooooOooOoo#ooooooooOOOOOooOoooooooooo"};
