/* XPM */
static char * left2_xpm[] = {
"50 25 8 1",
" 	c #FBEEFBEEFBEE",
".	c #C71BEFBEFFFF",
"X	c #9658B6DAD75C",
"o	c #38E3514469A6",
"O	c #61858617BEFB",
"+	c #20815144AEBA",
"@	c #208130C24924",
"#	c #041004100410",
"  ................ ...    . .. ...  ......X.   ...",
"... .  .....  . .... .  .X..  ...  ..X.X..X  ...Xo",
" ..  ..       .. .     ....  ..X    ..X......X...o",
".. ....   ...   ..    ..X.   .X.  ...X.XX.......oo",
"  .XX..XXXXX.X.XXXXXXXOXX...OOOOXXOOXXXOXXXOOOOooo",
"   X.XXXXXX.X.OXXXXXXXXXXXX.OXXXXXXXXOOXXXXOOXXoOo",
"   .XXXX..XXXXXOXXOXXX++XOXOOO..XOXXXOO..XXOOXXOoo",
"   XOXX.XXOXOXX.XO++++++ooXXOXXOOXXXXOOOXXOXXXXooo",
"   XXX XOXXXXX.XO+++++++ooXOOOOOOOOXOOOXXOOOOXXooO",
"   .XXXOXXXXX.OO++++++++o++++++++++++++++++++XXooo",
"...XXXXXXXXO+++++++++++++++++++++++++++++++++oOooo",
" ..XOOOXXO+++++++++++++++++++++++++++++++++++O+ooo",
" XXOOOO++++++++++++++++++++++++++++++++++++++oOoOo",
"...OOOXOO++++++++++++++++++++++++++++++++++++OOooo",
"XXXOOOOOOoo+++++++++++++++++++++++++++++++++ooOooo",
"X..OOOOOOOoo@@+++++++++++++++++++++++++++++++oOooo",
".XXOOOO+OOoooo@@++++++++#@@@@@@@@@@@@@@@@@@@@OOoOO",
"XXXOOO+OOOOOooo@@@++++++##@@@@@@@@@@@@@@@@@ooOXooo",
"XX.OOOOOOOOOOOO+ooo@@@++@@ooOoooooOooooOOOOOOOXoOO",
"XXXOOOOOOOOOOOOOO+oo@@@@@@o+OOOOOO+oOOXOXXOXXXXOoo",
".X.OOOOOOOOXOO+OOOo+oo@@@oOOoOOOOOOOOXXXXXXXXXXooo",
"XXXoooooo@o@ooo@@ooooo@@@@ooooo@oo@ooooooooooooooo",
"XXooooooooooo@ooooooooooooooooooooooooooooOooooooo",
"Xoo@o@o@oooooooooooo@oooooo@@ooooooooooooooOoooooo",
"Xoo+@ooooooo@o@oo@ooooo@o@oooooooooooooooooooooooo"};
