/* XPM */
static char * one_xpm[] = {
"60 60 3 1",
" 	c #000000000000",
".	c #104071C60000",
"X	c #2081EFBE0000",
"                                                            ",
"                                                            ",
"                                                            ",
"                                                            ",
"                                                            ",
"                                 ..                         ",
"                               .XX.                         ",
"                             .XXXXX                         ",
"                           XXXXXXX.                         ",
"                        .XXXXXXXXXX                         ",
"                      .XXXXXXXXXXX.                         ",
"                    .XXXXXXXXXXXXXX                         ",
"                  .XX.XXXXXXXXXXXX.                         ",
"                  ..    .XXXXXXXXXX                         ",
"                         XXXXXXXXX.                         ",
"                         .XXXXXXXXX                         ",
"                         .XXXXXXXX.                         ",
"                         .XXXXXXXXX                         ",
"                         .XXXXXXXX.                         ",
"                         .XXXXXXXXX                         ",
"                         .XXXXXXXX.                         ",
"                         .XXXXXXXXX                         ",
"                         .XXXXXXXX.                         ",
"                         .XXXXXXXXX                         ",
"                         .XXXXXXXX.                         ",
"                         .XXXXXXXXX                         ",
"                         .XXXXXXXX.                         ",
"                         .XXXXXXXXX                         ",
"                         .XXXXXXXX.                         ",
"                         .XXXXXXXXX                         ",
"                         .XXXXXXXX.                         ",
"                         .XXXXXXXXX                         ",
"                         .XXXXXXXX.                         ",
"                         .XXXXXXXXX                         ",
"                         .XXXXXXXX.                         ",
"                         .XXXXXXXXX                         ",
"                         .XXXXXXXX.                         ",
"                         .XXXXXXXXX                         ",
"                         .XXXXXXXX.                         ",
"                         .XXXXXXXXX                         ",
"                         .XXXXXXXX.                         ",
"                         .XXXXXXXXX                         ",
"                         .XXXXXXXX.                         ",
"                         .XXXXXXXXX                         ",
"                         .XXXXXXXXX                         ",
"                         XXXXXXXXXX                         ",
"                         XXXXXXXXXX.                        ",
"                        XXXXXXXXXXXX                        ",
"                   ...XXXXXXXXXXXXXXXX...                   ",
"                  .......................                   ",
"                                                            ",
"                                                            ",
"                                                            ",
"                                                            ",
"                                                            ",
"                                                            ",
"                                                            ",
"                                                            ",
"                                                            ",
"                                                            "};
