/* XPM */
static char * right1_xpm[] = {
"50 25 8 1",
" 	c #FBEEFBEEFBEE",
".	c #AEBAA6999E79",
"X	c #E79DDF7DCF3C",
"o	c #71C669A669A6",
"O	c #B6DA8E3871C6",
"+	c #FFFFFFFF0000",
"@	c #618559654924",
"#	c #041004100410",
"  . X  .X....X.   XXXX   X      XX.X.     X  XX .X",
"   XXXXXXXX.XXX.X.XX ...          .X.     X XX X.o",
"   X X XXXXX.XX..XO. ..XX    X  XXX X     X XXXXOo",
"  XXXXXXXX.XX XXX .. .XXXX   X  XX   X X   XXX Xoo",
". O......oOO.........oOO.+......X..XX..OO.O...Oooo",
"XXO.O...O....X......Ooo..+++.O...XX.XX.OO.O....oo@",
"X O......o.oO........@OOO+++++.....XX..OO.oO.O.oo@",
"XX.O.......@oO.O.Oo.OoOo@+++++++...X.X..o......ooo",
"XX......O.O@..Oo.o@oOo@o@++++++++....XO..O.....ooo",
"X....++++++++++++++++++++++++++++++....O.......ooo",
" X...+++++++++++++++++++++++++++++++++OO.......ooo",
" ....+++++++++++++++++++++++++++++++++++OO.....ooo",
" X...+++++++++++++++++++++++++++++++++++++OO...ooo",
" X...+++++++++++++++++++++++++++++++++++O@oO...oo@",
"XX...++++++++++++++++++++++++++++++++++@#@oO...ooo",
" X...++++++++++++++++++++++++++++++o#@#@ooO....Ooo",
" XO..Oo@@@@@@@@@@@@@@@@@@++++++++O@#@@@oo.oo..Xo.o",
".Xo...o@@#@@#@@#@#@##@#@@+++++++@#@@o@oooOo....o@o",
"XX....Ooo.Oooooooo@OOoO@o+++o@#@@@O.OO.O...X...ooo",
"X....O.O.oO..Oo.Ooo.oO.oo+O@#@@ooO.............ooo",
" ............O..o.....o.Oo@@@@oOO.........o....ooo",
"XXoo@oooo@oooo@oooooo@o@@@@@#o@ooooooo@o@@o@ooooOo",
"XX@ooooooooooo@ooooo@@@@@oo@oooooOo.@o@oooooo@oooo",
"Xoooo@ooooo@ooooooo@@@@@#oo@ooooo.oooo@oo@ooooooOo",
"ooooooooooooooooOoooo@@@@o@ooooooooOoooOooooo@oooo"};
