/* XPM */
static char * right_xpm[] = {
"50 50 14 1",
" 	c #F7DEFFFFFFFF",
".	c #CF3CE79DD75C",
"X	c #9658BEFBA699",
"o	c #69A69E7979E7",
"O	c #79E7AEBA9658",
"+	c #30C2492438E3",
"@	c #6185965871C6",
"#	c #FBEEFBEEFBEE",
"$	c #79E7B6DA9E79",
"%	c #F7DED0FC0000",
"&	c #514479E76185",
"*	c #8E38B6DA9658",
"=	c #410369A65144",
"-	c #041004100410",
"   .XoooOOooooooooooooooooooooooooooooooOoooooo+o+",
"    .Xooooo@o@o@oOoOoOoOo@o@o@o@o@o@o@oooo@o@o+o+o",
"... ..XOOooooOoOooOooooooOoOoOoooooooo@o@ooooo+@++",
"XX.   .XOoOoOooooOooOoOoOooooooOoOOoOOoOooo+@+o+++",
"OXX..#XXOoooooooOooo@oooooOo@Oooooo@ooooo@o@o+++++",
"O$OX.XXOooOOoOOoooOoOooOoooOooOoOoOoOoOoOoo+o+++++",
"oO$XXX$oOOOooOoOOOOOOOOOOOO$OOOOOOOOOOOOOOO@+@++++",
"Oo$oXOOOOOOOOOOOoOOOOOOOOOOOOO$O$OOOOOOOOOO@++++++",
"oOoO$OoOOOooOOoOOOOOOOOoOo$OoOOOOO$OOOOOOOoo++++++",
"OoOOOoOoOOOOOOOOOOOOOOOOOOOOO$O$OOOO$OOOOOO@++++++",
"oooO$oOOOOOoOOoOOOOOOOOO%%OOOoOO$O$OO$OO$Ooo++++++",
"oOoOOoOoOOOOOOOOOOOOOOOO%%%OOOOOOOOO$OOOOOO@++++++",
"OoOOOOOOOOOOOOOOOOOOOOOO%%%%OOO$OO$O$O$OOOO@++++++",
"oooOooOOOOOOOOOOOOOOOOOO%%%%%OOOOOO$$OOO$Oo@++++++",
"OooOOooOOOOOOOOOOOOOOOOO%%%%%%OOO$OO$O$OOOO&++++++",
"oOoOOoOOOOOOOOOOOOOOOOOO%%%%%%%OO$O$O$OOOOO&++++++",
"oOoOooOOOOOOOOOOOOOOOOOO%%%%%%%%OO$$O$O$OOo&++++++",
"oooOOoOOOOO%%%%%%%%%%%%%%%%%%%%%%OO$$$OO$OO&++++++",
"OoooOooOOO%%%%%%%%%%%%%%%%%%%%%%%%OO$$O$$OO&++++++",
"oooOOoOOOO%%%%%%%%%%%%%%%%%%%%%%%%%OO$$$$$o&++++++",
"oOoOooOOOO%%%%%%%%%%%%%%%%%%%%%%%%%%OO$$$OO&++++++",
"oOooOooOOO%%%%%%%%%%%%%%%%%%%%%%%%%%%OO*$$O@++++++",
"OoooOoOO$O%%%%%%%%%%%%%%%%%%%%%%%%%%%%OOXOO@++++++",
"oooOooOO$O%%%%%%%%%%%%%%%%%%%%%%%%%%%%%O$$Oo++++++",
"oOooOoOOOO%%%%%%%%%%%%%%%%%%%%%%%%%%%%%O$$O@++++++",
"ooooOooOOO%%%%%%%%%%%%%%%%%%%%%%%%%%%%%O$OOo=+++++",
"ooooooOO$O%%%%%%%%%%%%%%%%%%%%%%%%%%%%-O$$Oo++++++",
"oooOoOoOOO%%%%%%%%%%%%%%%%%%%%%%%%%%%--$$OOo=+++++",
"ooooooOOOO%%%%%%%%%%%%%%%%%%%%%%%%%%---$O$Oo++++++",
"o@ooOooO*O%%%%%%%%%%%%%%%%%%%%%%%%%---$O$OOo=+++++",
"oooooOoOOO%%%%%%%%%%%%%%%%%%%%%%%%---O$OOOOo++++++",
"ooooOooOOO-%%%%%%%%%%%%%%%%%%%%%%---$O$O$OOo=+++++",
"oo@oooOOOO--------------%%%%%%%%---$*$OO$OOo++++++",
"oooooooOOOO-------------%%%%%%%---$$$O$OOOOo++++++",
"o@o@OoOoOOOOOOOOOOOOOOO-%%%%%%---OO$$O$O$$oO++++++",
"oooooooOOooOoOoOoOoOoOO-%%%%%---$OO$$OOOOOOo++++++",
"o@ooO@oOOOOoOoOoOOOOOoO-%%%%---OOOOO$OOOO$Oo++++++",
"ooo@oooOooOoOoOOooooOOo-%%%---OOO$OO$OOOOOOo++++++",
"o@oooooOOooOooooOOOOoOo-%%---OO$OO$OOOOOO$Oo++++++",
"ooo@oooOoooooOoOooooOoo-----OO$OOOOOOOOOO$Oo++++++",
"o@ooo@ooOooooooooOoOooO----OOOOO$OOOOOOOO$Oo++++++",
"Oo@oooooo@@@@@oooooooooOOOOOOOOOOOOOOOoOOOoo++++++",
"oooo@@@o@@&&@&@@&@@@@@@oooooooOOOOOOoOooo*@O++++++",
"o@o@o+@@&==&&=&======&&&&@@&=oo@+oo@+@@@@o+@++++++",
"oooooo+@+++++&++&++=++++++++++++++++++++++o+++++++",
"o@+++o++++++++++++++++++++++++++@+++o+++++++++++++",
"+ooo@+++++++++++++++++++++++++++++++++++++++++++++",
"o@++++++++++++++++++++++++++++++++++++++++++++++++",
"o+o+++++++++++++++++++++++++++++++++++++++++++++++",
"+o++++++++++++++++++++++++++++++++++++++++++++++++"};
