/* XPM */
static char * right2_xpm[] = {
"50 25 8 1",
" 	c #FBEEFBEEFBEE",
".	c #BEFBDF7DFFFF",
"X	c #4103514471C6",
"o	c #69A68E38B6DA",
"O	c #8E38A699CF3C",
"+	c #20815144AEBA",
"@	c #28A241036185",
"#	c #041004100410",
" ... . . .... . . ..     ...  ...    . ....  ....X",
"..  ...      ..  .     ...   ...   .............XX",
"..   .  .    ... .     ... . ...   ........ ....XX",
". oOOO..OOooO.O.OO.O..OOO..OOoOO.OooOOOoO.ooOooXXX",
"  ..OOOOOOO...oOO.OOO....oOOooOOOOOOOooO.OoooOOXXX",
"  ..O.OO.OO.O.OOOOOOO.O..oOooOOOOOoOOoOOO.oooOOXXX",
"  O.OOO...OOOO.O.oOOO.OOoo++++OOooO.OoO..OooO..XXX",
"  O.O..OoOoOO..OooOOOOOoO++++++++oooOoOO.ooOOOOXXX",
"  OO...ooOOOO.O.ooOOOOOoOo+++++++oooOoOO.oOoOO.XXX",
". .oOX+++++++++++++++++++++++++++++++oOOoooOOOoXXX",
" .OOo+++++++++++++++++++++++++++++++++++XOOOOooXXX",
" .OOo++++++++++++++++++++++++++++++++++++OOOOooXoX",
"..ooo+++++++++++++++++++++++++++++++++++++ooOOOXXX",
"..ooo+++++++++++++++++++++++++++++++++@@@XXOOOOXXX",
"..ooo+++++++++++++++++++++++++++++++++@#@XooOOOXXX",
"..ooo++++++++++++++++++++++++++++++@##@@XXooOOOXXX",
"..ooo+X@@@#@@@#@@@#@@#@@#++++++@##@@XXXooOO.OOOXXo",
".OooooX@@@@#@#@@#@@@#@#@@@+++++@@##@XXXoooOOOOOXXX",
".OooooXXXXXXXXXXXXXXXXXXX+++@##@@XoXo+OoO.OOOOOXoX",
".Ooo+ooooooOoooooooooooooX@@@@XXXo+oOOOO.OO.OOOXXX",
".OoOoo+o+ooooo+o+o+oo+oo+oX@@@XXXooooOOOOO.OOOOXXX",
"..@@X@X@@@@@@XX@X@@XX@@@@@@@@@@XXX@@XXXXXXXXXXoXXX",
"O@@@@@@X@@XX@@@X@X@@X@X@@@@@@@@X@@@XXXXXXXoXXXXXXX",
"O@@@X@@@@@@X@X@X@@@X@X@@@@@@@@@X@@@XXXXXXXXXXXXXXX",
"@@@@@@@@XX@@@@@@@@@@@@@@@@@@@@XXXXXXXXXXXXXXXXXXXX"};
