/* XPM */
static char * st_xpm[] = {
"70 60 7 1",
" 	c #000000000000",
".	c #000018610000",
"X	c #104071C60000",
"o	c #082038E30000",
"O	c #104096580000",
"+	c #1861C71B0000",
"@	c #2081EFBE0000",
"                                                                      ",
"                                                                      ",
"                                                                      ",
"                                                                      ",
"                                                                      ",
"                                                                      ",
"                                                                      ",
"                                                                      ",
"                                                                      ",
"                                                                      ",
"                                                                      ",
"                                                                      ",
"                                                                      ",
"                                                                      ",
"                                                                      ",
"                                                                      ",
"                                                                      ",
"                                                                      ",
"                                                                      ",
"                                                                      ",
"                                                                      ",
"                                                                      ",
"      .XXo. . .ooooooooooo.     ..      .oooooooo     .ooooooooooo.   ",
"     O+ooX+XO X@+XX@@@OXO@+     X+       .O@@+XO+@+o  X@+XX@@@OXO@+   ",
"    X@..  .++ XX   @@@o  o+     +@.       X@@+  .+@@o XX   @@@o  o+   ",
"    @@.     O X    @@@o   X    o@@X       X@@+   O@@O X    @@@o   X   ",
"    @@+o    X      @@@o        +@@@.      X@@+   X@@+      @@@o       ",
"    +@@@+o         @@@o       oO@@@o      X@@+   O@@X      @@@o       ",
"    .@@@@@+o       @@@o       O.O@@+      X@@O  .@@+.      @@@o       ",
"     o+@@@@@X      @@@o      .O o@@@o     X@@@++@@X        @@@o       ",
"       o+@@@@.     @@@o      Xo  +@@+     X@@+.+@@+        @@@o       ",
"    o   .o+@@X     @@@o     .+XXX+@@@.    X@@+ X@@@X       @@@o       ",
"    O     .+@X     @@@o     XXoooo+@@O    X@@O  +@@+.      @@@o       ",
"    @.     X@o     @@@o     +     X@@+.   X@@+  .+@@+      @@@o       ",
"    @@o   .+O      @@@o    oX     .@@@X   X@@+   X@@@X     @@@o       ",
"    +oO+XX+X     oX@@@Oo  o@@X   .o@@@@o.o+@@@o.  +@@@X  oX@@@Oo      ",
"       .oo                                                            ",
"                                                                      ",
"                                                                      ",
"                                                                      ",
"                                                                      ",
"                                                                      ",
"                                                                      ",
"                                                                      ",
"                                                                      ",
"                                                                      ",
"                                                                      ",
"                                                                      ",
"                                                                      ",
"                                                                      ",
"                                                                      ",
"                                                                      ",
"                                                                      ",
"                                                                      ",
"                                                                      ",
"                                                                      ",
"                                                                      ",
"                                                                      ",
"                                                                      ",
"                                                                      "};
