/* XPM */
static char * three_xpm[] = {
"60 60 3 1",
" 	c #000000000000",
".	c #104071C60000",
"X	c #2081EFBE0000",
"                                                            ",
"                                                            ",
"                                                            ",
"                                                            ",
"                                                            ",
"                                                            ",
"                                                            ",
"                                                            ",
"                          .XXXXXX.                          ",
"                        XXXXXXXXXXXX                        ",
"                      .XXXXXXXXXXXXXX.                      ",
"                     .XXXXXXXXXXXXXXXX.                     ",
"                    .XXXXXXXXXXXXXXXXXX                     ",
"                   .XXXXXXXXXXXXXXXXXXX.                    ",
"                  .XXX... ..XXXXXXXXXXXX                    ",
"                  XX.        XXXXXXXXXXX.                   ",
"                 .X.          XXXXXXXXXX.                   ",
"                 X.            XXXXXXXXX.                   ",
"                ..             .XXXXXXXX.                   ",
"                               .XXXXXXXX                    ",
"                                XXXXXXX.                    ",
"                               .XXXXXXX.                    ",
"                               .XXXXXX.                     ",
"                               XXXXXX.                      ",
"                               XXXXX.                       ",
"                              XXXXX.                        ",
"                             .XXXXXX.                       ",
"                            XXXXXXXXXX.                     ",
"                         .XXXXXXXXXXXXX.                    ",
"                       .XXXXXXXXXXXXXXXX.                   ",
"                       ..XXXXXXXXXXXXXXXX                   ",
"                           .XXXXXXXXXXXXX.                  ",
"                            ..XXXXXXXXXXXX                  ",
"                              .XXXXXXXXXXX.                 ",
"                               .XXXXXXXXXX.                 ",
"                                .XXXXXXXXXX                 ",
"                                 .XXXXXXXX.                 ",
"                                  XXXXXXXXX                 ",
"                                  .XXXXXXX.                 ",
"                                   XXXXXXX.                 ",
"                                   XXXXXXX.                 ",
"                                   .XXXXXX                  ",
"                                   .XXXXX.                  ",
"                                   .XXXXX.                  ",
"                 .X..              .XXXX.                   ",
"                XXXXX.             XXXXX                    ",
"               XXXXXXXX            XXXX.                    ",
"               XXXXXXXXX          .XXX.                     ",
"               XXXXXXXXXX.       .XXX.                      ",
"               .XXXXXXXXXXX.   ..XXX                        ",
"                .XXXXXXXXXXXXXXXXX.                         ",
"                 .XXXXXXXXXXXXXX.                           ",
"                    ...X.X....                              ",
"                                                            ",
"                                                            ",
"                                                            ",
"                                                            ",
"                                                            ",
"                                                            ",
"                                                            "};
