/* XPM */
static char * titlem_xpm[] = {
"70 35 11 1",
" 	c black",
".	c #69A630C20000",
"X	c #9E7949240000",
"o	c #30C210400000",
"O	c #CF3C61850000",
"+	c #EFBE79E70000",
"@	c #FFFF9E790000",
"#	c #DF7D79E70000",
"$	c #F7DE96580000",
"%	c #FFFFCF3C0000",
"&	c #618559655965",
"                                                                      ",
"                                                                      ",
"                                                                      ",
"                                                                      ",
"                                                                      ",
"     ........XXXXXX...o...XOO++++@@+@@@@@@+++O+#OOXXX...ooooooo.      ",
"    ................oo..XXO++@@@@@@@@@@@@@@@@++OOXOXXX.....ooooo.o    ",
"   o............oooo..XXO++@@@@@@@@@@@@@@@@@+@$+#OOOXXXX.....oooooo   ",
"   .ooo.o.o.oooooo...XX++@@@@@%@%%%%%%@%@@@@@@@@+#OOXXX....oooo    &  ",
"   ooooooooooo.oooooo...XXXOO#$%%%%%%%%%$XXXXO#OOXX..ooooooooo oo  o  ",
"    oooo    oooooo o....  XXX.oO%%%%%%%X.X#OX.o....o o       o oo  &  ",
"    o   oo  oo... .XXO+Ooo@@%#oo#%%%%%Xo#%%$@#.oXX.oo.ooo oooo oo  o  ",
"    ooooooo o..X..#++@@$oo@%%%X .%%%%# X%%%%%%# .++XOXX.  .o.ooo o o  ",
"     o oo.oo .O. #@@@@@$oo$@@@X o++++oo#%$%%%%%. O@@OOOXo ......oo &  ",
"   oooooo... oX OO+@@@%$oo%%%%. X@%%#o.%%%%%%%%X .@@++OOo .X....oo o  ",
"   ooo......o  .OO++@@@#oo%%%Xo.%%%%X X%%%%%%%%O o+@@##Xo .X...oo  o  ",
"   ooooo.....o .OO#++@@$ooX...#%%%%%XoX%%%%%%%%Xoo$@@+OO o.XX...o  o  ",
"    ooooooo.o  o.XOO++@#oo#X .%%%%%%X X%%%%%%%%# o$@@++Oo XXX...oo o  ",
"    o oo o o oo oXXO++@$o.%%X X%%%%%#o.%%%%%%%%X .$@@$+Oo XXXX..oo o  ",
"    o ooooo ...o X+++@%#oo%%%.o%%%%%%oo%%%%%%%%X O@@@+#Oo XXX....ooo  ",
"   ooo.... .XXOX o#@@@@$oo%%%#o.#%%@%X X%@%@@@$o.$$@+++Oo XXXXX..o o  ",
"   o....Xo.XOOOO. .$@+@#oo+@+@X .++++O.o#+@@@@.oO$@+$++O  XOXX...ooo  ",
"   ooo..o .XXXOO.  .+@$O oO+@@$. .++@@#..#$$#Xo#@@@@$+OXo ..X...oo o  ",
"   oo.oooo.XXOOO.X.XO$#XXXX#@@@#XXO#@%%%#XXXXX$%$$#OXX.oooooooo o  o  ",
"   ooo...X.XXXOO#++@$$@%%%%@%@%%%%%%%%%%%%%%%@@@OOX..ooooooooooo   o  ",
"   o.o....X.XXXOOO#++@@@@@@%%%%%%%%%%%%%%%%%@@@++OOXX....o.ooooo o o  ",
"   oooo......X.XXXXXXOOOOO#####+#$$$$$$$$$+++#+OOOXXXXX......ooooo o  ",
"    oo.ooo.o.o..................X.XXXXXXXXXXXXX.X......o.ooooooo  o   ",
"     oooooooooooo oooooooooooooooo.ooo.o......o..o.oooooooo o o   o   ",
"     .           oo oooooooooooooooooooooooooo.oooooooooo       o     ",
"                                                                      ",
"                                                                      ",
"                                                                      ",
"                                                                      ",
"                                                                      "};
