/* XPM */
static char * two_xpm[] = {
"60 60 3 1",
" 	c #000000000000",
".	c #104071C60000",
"X	c #2081EFBE0000",
"                                                            ",
"                                                            ",
"                                                            ",
"                                                            ",
"                                                            ",
"                                                            ",
"                                                            ",
"                         ..XXXXX..                          ",
"                       .XXXXXXXXXXX.                        ",
"                      XXXXXXXXXXXXXX.                       ",
"                     XXXXXXXXXXXXXXXXX                      ",
"                    XXXXXXXXXXXXXXXXXX.                     ",
"                   XXXXXXXXXXXXXXXXXXXX.                    ",
"                  .XXXXXXXXXXXXXXXXXXXXX                    ",
"                  XXXXX....XXXXXXXXXXXXX.                   ",
"                 .XXX       .XXXXXXXXXXX.                   ",
"                 XX.          XXXXXXXXXXX                   ",
"                .X.           .XXXXXXXXXX                   ",
"                .X             XXXXXXXXXX                   ",
"                               .XXXXXXXXX                   ",
"                                XXXXXXXX.                   ",
"                                XXXXXXXX.                   ",
"                                XXXXXXXX                    ",
"                                XXXXXXXX                    ",
"                                XXXXXXX.                    ",
"                               .XXXXXXX                     ",
"                               .XXXXXX.                     ",
"                               XXXXXXX                      ",
"                               XXXXXX                       ",
"                              .XXXXX.                       ",
"                              XXXXXX                        ",
"                             .XXXXX                         ",
"                             XXXXX                          ",
"                            .XXXX.                          ",
"                           .XXXX.                           ",
"                           XXXX.                            ",
"                          .XXXX                             ",
"                         .XXX.                              ",
"                         XXXX             .                 ",
"                        XXXX             .X                 ",
"                       .XXX              XX                 ",
"                      .XX.              XX.                 ",
"                      XXX.............XXXX.                 ",
"                     XXXXXXXXXXXXXXXXXXXXX                  ",
"                    XXXXXXXXXXXXXXXXXXXXXX                  ",
"                   .XXXXXXXXXXXXXXXXXXXXX.                  ",
"                  .XXXXXXXXXXXXXXXXXXXXXX.                  ",
"                  XXXXXXXXXXXXXXXXXXXXXXX.                  ",
"                 XXXXXXXXXXXXXXXXXXXXXXXX                   ",
"                XXXXXXXXXXXXXXXXXXXXXXXXX                   ",
"               .XXXXXXXXXXXXXXXXXXXXXXXX.                   ",
"                                                            ",
"                                                            ",
"                                                            ",
"                                                            ",
"                                                            ",
"                                                            ",
"                                                            ",
"                                                            ",
"                                                            "};
