/* XPM */
static char * up_xpm[] = {
"50 50 15 1",
" 	c #F7DEFFFFF7DE",
".	c #FBEEFBEEFBEE",
"X	c #A699C71BB6DA",
"o	c #69A69E798617",
"O	c #79E7AEBA8E38",
"+	c #38E351444103",
"@	c #8617B6DA9658",
"#	c #69A6965879E7",
"$	c #410361855144",
"%	c #5965861771C6",
"&	c #8E38BEFB9E79",
"*	c #F7DED0FC0000",
"=	c #041004100410",
"-	c #79E7AEBA9658",
";	c #8E38B6DA71C6",
"  . XoooOOoooooooooooooooooooooooooooooooooooo+oo+",
". . X@oooooooooooooooooooooooooooooooooooooooo#+++",
" X    XOoooooooooooooooooooooooooooooooooooo$#+%++",
"X&X   X@OOooOooOoOooOoOoOoOoOoOoOoOoOoooOoo%%%++++",
"o@X   X&@OoOoooooooooooooooooooooooooooooooo$+++++",
"OOoOXXX@@OoooooooOOOOOoOoOoooooooooooooOoooo$+++++",
"Ooo@@@OOoOOOOOOOOOOOOOOOOOOOOOOOOOOOOOOOOOoo$+++++",
"ooOoOOoO@@@@@@@@@@@@@@@@@@@@O@OOOOOOOOO@OOO#$+++++",
"oOoOooOoOOOOOOOO@@@@@&&&@@@@@@@O@O@O@O@O@OO%++++++",
"oooOoooOoOOOO@@@OO@@@@@@@@@@@O@@@@@@@@@@@Oo#++++++",
"ooOoOoooOOOO@OOO@@@@@@@***===@O@OO@OO@OO@OO%++++++",
"OooOoooOOoOOOO@@@@@@@@*****===OO@@O@OO@OOOo#++++++",
"ooooOoOoOO@O@OO@O@@@@*******===@@O@O@@@@@OO#++++++",
"oooooooOoOOOO@@O@@@@*********===@@@@@@@@@Ooo++++++",
"oooOooooOO@@O@O@@@@***********===OOOOo@OOOO#++++++",
"oooooooOOOO@@O@@@@*************===O@O@@O@Oo#++++++",
"ooooOooOO@O@O@@@@***************===O@@OOOOoo++++++",
"ooooooOoOOO@@@@@*****************===@@@@@Ooo++++++",
"oooOoooOO@@OO@@*******************===OOOOOo#++++++",
"oooooooOO@O@@@*********************===@OOoo#++++++",
"ooooOoOOO@@@@***********************===OOoo%++++++",
"ooooooooO@@@*************************===OOo#++++++",
"oooOoooOO@@***************************===Oo%++++++",
"ooooOooOo@*****************************==-o#++++++",
"ooooooOoO@*****************************==-oo++++++",
"oooOoooOOOOOOOOOO***************=========-o#++++++",
"oooooooOoOOOOOOOO***************==-OO;;;OOo#++++++",
"oOooOoooOOOOOOOOO***************==--;OOOOOo#++++++",
"oooooooOOOOO@OOOO***************==-O@OOOOoo#++++++",
"ooooOoooOOOO@OOOO***************==-OOOOOOOo#++++++",
"oooOoooOoOOOOOOOO***************==-OOOOOOOo%++++++",
"ooooooooOOOO@OOOO***************==-OOOOOOoo%++++++",
"oooOoooOOoOOOOOOO***************==-OOOOoOOo%$+++++",
"ooooooooOOOO@@@OO***************==-OOoOOooo#++++++",
"oooooooOoOOOO@@OO***************==-OOOOOOO#%$+++++",
"oOooOoOooOOoOOOOO***************==-OoOOoOo#%$+++++",
"oooooooOOoOOOOOOO***************==-OOOoOoo#%$+++++",
"ooooooooOoOoOOOOO***************==-OOOOOOo#%$+++++",
"ooooOooooOOOOoOoO@*************==-oOoOoOoo#%$+++++",
"oOoooooOOOoOoOOOo@OOOOOOOOOOOOOO#oooOoOooo#%$+++++",
"ooooooooooOoOOoOOooOOOo@OO#@@@###O#oooooo##%$+++++",
"ooooOoooOoooooOooOOoOOOOOOoo#######oooo###%$$+++++",
"oooooooooooOooooooooooooooo#########%####%%%$+++++",
"oooo#o%o%oooooooooooo#####%%%%%%%%%%%%%%%%%$$+++++",
"ooo#oo%%%%%%%%%%%%%%%%%%$%%%%$%$%%$%%%$%%$$$$+++++",
"o%o%%%$$$$$$$$$$$$$$$$$$$$+$$$$$$$$$$$$$$$$$++++++",
"o%%%$$$$$$$$$$$$$$$$$+$++$+$+$$$+$$$+$$$+$++++++++",
"o$%$$$$$+$++++++++++++++++++++++++++++++++++++++++",
"o#$+%+++++++++++++++++++++++++++++++++++++++++++++",
"++++++++++++++++++++++++++++++++++++++++++++++++++"};
