/* XPM */
static char * up1_xpm[] = {
"25 50 8 1",
" 	c #AEBAA6999E79",
".	c #71C669A669A6",
"X	c #618559654924",
"o	c #B6DA8E3871C6",
"O	c #E79DDF7DCF3C",
"+	c #FBEEFBEEFBEE",
"@	c #FFFFFFFF0000",
"#	c #041004100410",
" ....XX......X..........o",
" O..o........... ....o...",
"+OOO.....................",
"OO++o           O    ....",
"+OOO  o              .X.X",
"+OOO                 ....",
"O++O  o o   ooooo O  X...",
"OOOO .      o.. .. oo....",
"++++    o  o@XX. o   X.X.",
"++++ooo.   o@oXX..   X...",
"+++Ooo   oo@@@#X..o  ...o",
"++++     oo@@@@XX.o  XXX.",
"+++OO  OO @@@@@#X.o  ....",
"  O+ +O   @@@@@X#.   .X..",
"OO++OO O  @@@@@XXX   . .o",
"  OOO O  @@@@@@@#Xo  o...",
"O++O O  o@@@@@@@o#X  .. .",
"OOOO O  @@@@@@@@@XX.o...o",
"++++O  o@@@@@@@@@@X. ....",
"++++   @@@@@@@@@@@#X.X...",
"++OO o.@@@@@@@@@@@XXX....",
"++++   @@@@@@@@@@@X#XX...",
"++++  @@@@@@@@@@@@@#XXXX.",
"++++  @@@@@@@@@@@@@oXX..X",
"+O+Oo@@@@@@@@@@@@@@@.X...",
"++OO O.XX@@@@@@@XX.ooXXXX",
"O OOo oo.@@@@@@@XX..oX#XX",
"+ O o.o.X@@@@@@@X#.o .XXX",
"O   ..X..@@@@@@@XX. .XXX.",
"O+++ o oo@@@@@@@X#.  .XX.",
"O+      .@@@@@@@XX.  ..X.",
"O oO   .X@@@@@@@#XX. ....",
"+O +   o.@@@@@@@X#.. ....",
"+OOO     @@@@@@@XX.oo....",
"+      o.@@@@@@@X#.. .o..",
" OO+    o@@@@@@@XX.. .X..",
"OOOO O o @@@@@@@X#o o....",
"  O+  o. @@@@@@@XX.o ....",
"   Oo .XX@@@@@@@XX.  ..X.",
"OOO o   o@@@@@@@X#o  ....",
"  OOo.   @@@@@@@XX . X...",
"OOOO    o@@@@@@@X#o  ....",
" OOO   o @@@@@@@XXo. ....",
"+O++    o@@@@@@@...  ....",
"+OO      @@@@@@@o    ..X.",
"OO++ o               X...",
"O+OO   o             ....",
"O+OOooo         o    .X..",
"++++OO+OO O OOOOO OO OO..",
"++++ OOOOO++++O++O O+OOO."};
