/* XPM */
static char * wall7_xpm[] = {
"50 25 7 1",
" 	c #18612081E79D",
".	c #69A679E7F7DE",
"X	c #B6DAB6DAFFFF",
"o	c #51446185A699",
"O	c #BEFBC71BFFFF",
"+	c #0820186138E3",
"@	c #FBEEFBEEFBEE",
"  ................................................",
"  ......................................X........o",
" oOOOOOOOOOOOOOOOOOOOOOOOOOOOOOOOOOOOOOOOOOXOOOOo+",
" oX@OOOOOOOOOOOOOOOOOOOOOOOOOOOOOOOOOOOOOOOOOOOOoo",
" oXOXOOXXXXOOOOOOOOXOXOOOOOOXOOOOXXXOOOOOXXXXXOOoo",
"  .OOOOOOOOXXXXXOOOOXOOOOOXXOOXOOOOOOOOOOOXXXOXO++",
"  XXXXOOOOOXXOOOXOOOOOXOXXXXOOOOXXXOOOXOOOOOOOXOoo",
"  XOOOXXOOOOOOOOXXXXOOOOXXOOOXOXOOOOOOOOXXXOOXXOo+",
" oXOXXXOOXOOOOOOXXXXXOOOOOOOXOXXOOOOOXXOOOXXXOOOoo",
" oXOOOOXXXXXOOOOOOOOXXXOOOOOOOOOOXOOOOXXOOOXOOOOo+",
"  XOOOOOXXXXOOOOOOOOOXXOOOOOOOOXOOOOXXOXXXOOOOOOoo",
"  XOOOOOOOXXXXXOOOOOOOOOXOOOOOOOOXOOOXXXOOXOOOOOo+",
"  .OOOOOOOOOXXXXOOO@O@OOOOXXXOOOOOOXOOOOOXOOOOOXo+",
"  XXOOXOOOOOOOOXXOOOOOOOOOXXXOOOOOOXOOOOOOOOOXXXoo",
"  .OXXXOOOOOOXXOXXXOOO@OOOOXXXOOOOOOXOOOOOOXXOXXo+",
"  XOXXXXOOOOOOXOXXOXXOOO@OOOXOOOXXXXOOXOOOOOXXXXo+",
"  .OXOOOOOOOOOOOXXXXOXXOOOOOXXOOOOXOXXXXOOOOOOOXoo",
" oXOOXOOOXXXOOOOXOXXOOOXOOOOOOXXOOOOOXXXXXOOOOOOo+",
"  XOOOXOOOOOXOOOOXXOOOOOOXOOOOXXOOOOOOOOXOOOOOOOoo",
"  XOOXXXOOOOXXOOOXXXXOOOOXXXOXXXXOOOOOXOOXXXXXOOo+",
" oXXOOOXOOOOOXOOOOOXOOOOXXXXXOOXOXOOOOOOOXXXXXOXoo",
" oXOOOOOOOOOOOOOOOOOOOOOOOOOOOOOOOOO@O@OOOOOOOOOo+",
" o.ooooooooooooooooooooooooooooooooooooooooooooooo",
"  ++++++++++++++++++++++++++++++++++++++++++++++++",
" ++++++++++++++++++++++++++++++++++++++++++++++++o"};
