/* XPM */
static char * wall4_xpm[] = {
"25 50 8 1",
" 	c #71C671C671C6",
".	c #38E338E338E3",
"X	c #104008201040",
"o	c #C71BC71BC71B",
"O	c #A699A699A699",
"+	c #041004100410",
"@	c #AEBAAEBAAEBA",
"#	c #FBEEFBEEFBEE",
" ........................",
"   .....................X",
"  o        OO O       .+X",
"  oooo@o@ooo#@ooo@ooo@.XX",
"  o@@@O@@@ooo@@@@@@@@OXXX",
"  o@o@@@@ooo#@@oo@@@oO.XX",
"  o@@@@@@oooo@@o@O@o@OXXX",
"  o@o@@@@oooo@OooO@@oOXXX",
"  o@@@@@@oooo@OooO@o@O.XX",
"  o@@@@@@oooo@OooOO@oOXXX",
". o@@o@@@ooooOOo@O@o@OXXX",
"  o@@@@@oooo@@@ooO@@@O.XX",
". oo@@oOoooo@@@o@O@o@OXX+",
"  o@@@o@oooo@@@ooO@o@O.XX",
". o@@@oOooo@@@@o@@@o@OXX+",
". #O@@o@ooooO@oo@@@o@O.XX",
".Oo@@@@@ooo@@@o@@@@o@OXX+",
". o@@@o@#oo@O@oo@@@o@O.XX",
".Oo@@@@oooo@O@oo@@@o@OXXX",
"  o@@o@o#@o@O@o@@@oo@O.X+",
". oo@@@oo@@@@@o@@o@@@@XXX",
"  o@@@@o#@@@O@o@@@@o@@.XX",
". o@o@@#o@@@O@o@@o@@@@XXX",
"  o@@@@oo@@OO@oO@@o@@@.+X",
". o@o@@#@@@@OooO@oo@@@XXX",
"  o@o@@#@OO@OooOOo@@o@.+X",
"  o@o@@#@OO@OooOOo@@o@X+X",
"  @ooOoooOO@Oo@@Ooo@o@.+X",
"  oooOoo@@O@Oo@@Oo@@o@XXX",
"O oooOoo@@@O@o@@Ooo@o@.+X",
"  @ooOoo@@O@@o@@@o@@@@XXX",
"  oo@@oo@@@O@o@@O@o@o@.XX",
"  oo@@oo@@@@@o@@@o@o@OXXX",
"  ooO@o@@@@Ooo@Oo@@o@@.+X",
"  o@@@o@o@@@@oO@@@@o@OXXX",
"  o@@oo@@@@@ooO@o@@o@O.XX",
"  o@@ooO@@@@ooO@@@@o@OXXX",
"  o@@ooO@o@@ooO@oO@ooOXXX",
"  o@@o@@@oO@ooO@oO@o@O.XX",
"  o@@o@O@@@@ooOo@O@o@OXXX",
" Oo@@o@@@o@oooO@oO@o@O.XX",
" Oo@@o@@O@@@ooOo@O@o@OXXX",
" Oo@@oO@@oo@#@Oo@O@o@O.XX",
" OoO@oO@O@@oo@@o@@@o@OXXX",
" Oo@o@@@@@o@#@@o@O@@oOXXX",
"  o@@@@@@@ooo@@o@O@o@O.XX",
" Ooooo@@@ooo#ooo@o@@o@XXX",
"  oO@OO@OO@@o@@O@@@@O@ +X",
" . .  .. .  O  . ..  . XX",
".XX...+XXXX. ..+X.XXXX.X."};
