/* XPM */
static char * wall10_xpm[] = {
"25 50 8 1",
" 	c #965886174924",
".	c #4924410328A2",
"X	c #C71BB6DA71C6",
"o	c #208118610820",
"O	c #D75CC71BA699",
"+	c #E79DD75CAEBA",
"@	c #FBEEFBEEFBEE",
"#	c #041004100410",
" ........................",
"XX .....................o",
"XXO  X                .oo",
"X ++++@++++@O+OO+++@+Oooo",
"XX+++++++OOOOOOOOO+O+O.oo",
" X++++++++++OOOOO++++Oooo",
"XX++++++O+++OOOOOOO++O.oo",
" X++++OOO+++OOOOOO+O+Oooo",
"XX+++OOOO+++OOOOO+OO+O.oo",
"XX++OOO+O++++OOOO+OO+Oooo",
"XX+OOO+++O+++OOOO++OOOooo",
"XX+O+++++O+++OOOOOO++Oooo",
"XX+++++OOO+++OOOO++++Oooo",
"XX++++++OO++OO+OOO++++ooo",
" X++++OOOO++O+++OO++@+.oo",
"XX++++OO+OOOO+++OO++++ooo",
" X+++OO+++OOO++++O++++ooo",
"XX+OOO+++O++O++++++++O.oo",
"X++O+++++O++OO+++O+++Oooo",
"X++++++++O++OO+++O++@Oooo",
"X++OOO+OO+++OO++OO+++X.oo",
"+++OOOOOO++++OOOOOO+OOooo",
"+X++++OOO+++OOOOOOO++Oooo",
"XX++++++O++OOO++++O+@+ooo",
"XX++++++OOOOOO+++OO+++ooo",
"XX++++++OOOOOO++OOO+++.oo",
"XX++++++OOO+OO++OOO+@+ooo",
"XX++++OOO+++OO+OOOO+++ooo",
"XX+++O+O++++OOOOOOO+++ooo",
" X+++OOO++O+OOOO++O+++ooo",
" X++O+OOO+++OOO+++O++O.oo",
"XX+++OO+O+O+OOO+++O++Oooo",
" X+OOOO+O+O+OO+++++++Oooo",
"XX++OOO++OO+OO++++O+OO.oo",
" X++OOOO++OOO++++O+O+Oooo",
" X+++O+O++OOO+++O++++Oooo",
" X+++O++O+O+O+++O+O++O.#o",
"XX+++O+++OO++O+OO++++Oooo",
" X++OO+++O+++OOO++O+OO.oo",
"XX+O+O++OO++++O++++O+Oooo",
" X++OO+O+O+++OOO+++O+O.oo",
"XX+++OOOO++++OOOO+O+OOooo",
" X++++OO++++OOOOO+O++O.#o",
"XX+++OOOO++OOOOOOOOO+Oooo",
"XX++++++O+OOOO+OOO+++O.oo",
"XX+++++++OO+OOOOOOO++Oooo",
"XX+++++++O+++O+OOO++OOooo",
"XXOXOXOOOXOOXOOOOOOOOO.oo",
"                       .o",
"   ... .. ...........   ."};
