/* XPM */
static char * wall2_xpm[] = {
"25 50 6 1",
" 	c #5965492428A2",
".	c #AEBA8E384103",
"X	c #CF3C9E794924",
"o	c #D75CBEFB69A6",
"O	c #D75CAEBA6185",
"+	c #DF7DC71B79E7",
"                         ",
".. . .............. .    ",
". ..XXXXXXoXXX.XOoXX..   ",
"X..XXXXXXXoOXOXXoXooOO.  ",
"OX.OXXXXXOOoXXXOOOoOoO.  ",
"OOXXXOXXXOXoXOXXOoOooO.  ",
"oo.O.Xo.XoXOXoXXOXooOO.  ",
"OoXOXOO.Xo.OXoXXOoOooO.  ",
"O+XO.OX.XOXOXoX.OXoOoO.  ",
"OOXOXOXX.oXOXXX.XOOOoX.  ",
"o+XoXXX.XOXOXOXXOOXoOO.  ",
"o+XOXOO.XoXXXOXXOOOoO..  ",
"OOXOOOX.XoXO.OX.oOooX..  ",
"o+OoOOXXXoXOXoX.OOoOOX.  ",
"oOOoOOXXXOXOXOXXOOXoXX.  ",
"o+XOXXOX.oXo.oXXXoooX..  ",
"oOOOXOXXXoXoXoXXXoXOX..  ",
"OooOXOXXOoXOOXoO.oOXX..  ",
"o+OXXOX.XoXOXOOX.OOOX.X  ",
"oooXXXXXXoXoXOOOXOXXXX.  ",
"++OX.XXXXoXoOXOoXOOXXX.  ",
"oooX.XOXXoXOOOooXXXXXX.  ",
"++OXXOXXX+XOoX+OXXXXXXX  ",
"++OXXOXXX+XOOXooXXXOXX.  ",
"o+OXXOXXX+XOoXOOXXOoXO.  ",
"++OXXoX.OoXOOXoOOXXOOX.  ",
"++XXOOOXX+XOOXoOXXXXXO.  ",
"+oOXoXOXXoXXOXOoOOXXOO.  ",
"++OXOOOXXoXOoXooOOXOOX.  ",
"o+OXOXXXOoXOOXooOOXOOO.  ",
"ooXXOXXXOoXOOXooOoOoOO.  ",
"o+OXoXXOOXOOXOOooXOooo.  ",
"ooOXOXXXOoOOOOooXOooOoO  ",
"ooXXOXXOoXoOoXoOoooooo.  ",
"ooOXoXXOoOOOOXoOoooo++.  ",
"ooXXOX.OoXOXoXooooo+o+.  ",
"ooXXXX.XoXOXoXOOooo+o+.  ",
"OoXXoXXOoXXXoXOoooo++o.  ",
"ooXOoXXOoXoXoOOooo+++o.  ",
"ooXXOXXXoXOXOO.oooo++o.  ",
"ooXOoXXXoXOXoOXooooo+o.  ",
"o+OOo.XX+XoOoOXooo+o+o.  ",
"o+OOoXXXoXOXoOOOoO+o+O.  ",
"o+OOOXXXoXO.OOOXoooooo.  ",
"o+OoXXXXoXX.OOOXooo++o   ",
"++oOOXXXoOoXooXX+ooooO.  ",
"+++OOXXOoXoXOoXXXoo+oO . ",
"++OooX.OOOoOXoXX.OOoo.   ",
"+++O+OXOoXOOXoOO.XOo.. . ",
"+++++OXo+o+oO+ooXX+OO... "};
