/* XPM */
static char * wall9_xpm[] = {
"50 25 8 1",
" 	c #965886174924",
".	c #C71BB6DA71C6",
"X	c #E79DD75CAEBA",
"o	c #4924410328A2",
"O	c #D75CC71BA699",
"+	c #FBEEFBEEFBEE",
"@	c #208118610820",
"#	c #041004100410",
"  ..... . . .   . .  ......XX.... . ...... . .... ",
"  ..........................XXXX.............. ..o",
"  OXXXXXXXXXXXXXXXXXXXXXXXXXXXXXXXXXXXXXXXXXXXXO o",
"o .XXXXXXXOXXXXXXOXXXXXXXXXXOOXOOXXXXXOOXXXXXXX oo",
"o OXXXXXXOXOXXXOOOXOXXXXXXXXOOXXOXXXXXXOOXXXXXX oo",
"o .XXXOXOOOOOOOOOOOXOOXXXXXXOOXXOOXXXXXOOOXXXXX.oo",
"  OXXXOOOXXXXXXOOOOOOXOXXXXOOXXXXOOOXXXXOOOXXX+ oo",
"o OXXXOOOOXXXXOOXXXOOOOXXXXOOOXXXXOOXOXXXOOXXXX oo",
"o OXXOOXOXOXXOXXXOOOXXOOOOOOOOXXXXXOOOXXOOOOXXX oo",
"  .OOXXXXOOOOXXXOXXXXXXOOOXXXXOOOXOOOOOOXXXXXOX oo",
"o OXOOXXXXXXOOOOOOOXOXXOOOXXXXXXXOOXXXXXXXXXXOX oo",
"o OXXOOXXXXXXXOOXXXXXXXXOOOXXXXXXOOXXXXXXXXXXO+ oo",
"o .XOOOOXXXXXOOOOOOOOOOOOOOOXOOOOOOOOXXXXOOOOOO oo",
"o OOOOOOOOXOOXXXOOOOOOOOOOOOOOOOXXXXOOOOOOOOOOX oo",
"o OXOXOOOOOOXXXXXXOOOOXXXXXOOXXXXXXXXOOOOOOOOOO oo",
"o OOOOOOOOXOOXXXXXXXOOOXXXXOOXXXXXXXOOOOOOOOOOO oo",
"o OOOOOOOXXXOOOXXXXXXOOOOXXOOOXXXXOOOOOOOOOOOOX oo",
"o OOOOOXXXXXXXXOXXXXXOOOOOXOOOOOXOOOOXOXXXOOXOX oo",
"o OXOXOOOXXOXOXXOXOOOOOOOOOOOXXXXXXXXXOXOOXOXXX oo",
"o OXXXOXXOOXXXXOXXXXXXXXXXXXXXXXXXXXXXXOOOOXXO+ oo",
"o OOXXXXOXXOXXXXOXXXXXX+XX+XOX+XXXX+XXXOXXXXXXX oo",
"  OOOOOOOOOOOOOOOOOOXXXXXXXOO.OOOXXXXOOOOOOOOOO oo",
"  o@@o@o@o@o@o@@o@@o@@@@o@@@@o@@o@@o@@@@@o@o@o@ooo",
" o@@@@@#@@@@@#@@@@@@@@@@@@@@@@@@@@@@@@@@@@@@@@@@oo",
"o@@@@@@@@@@@@@@@@@@@@@@@@@@@@@@@@@@@@@@@@@@@@@@@@o"};
