/* XPM */
static char * wall3_xpm[] = {
"50 25 8 1",
" 	c #38E338E338E3",
".	c #71C671C671C6",
"X	c #A699A699A699",
"o	c #104008201040",
"O	c #C71BC71BC71B",
"+	c #AEBAAEBAAEBA",
"@	c #FBEEFBEEFBEE",
"#	c #041004100410",
" ...................X.... . . .     . . ..........",
"o .X.XXXXX.....................X.X............... ",
"o.OOOOOOOOOOOOOOOOO+OO+OOOOOOOOOOO@OOOOOOOOOOOOO. ",
"  XO++X+++++++++OOOOOOO++++++O++++X++O++++++++O.  ",
" .+O+O++++++++++X++OOOOOOO+O++++++++++++++O+O+O.  ",
" .XO++OOOOOOOOO++++XXXX+++++++O++++++++O++++++O.  ",
"# X+++XX++++OOOOOOOOOOO+++++++++O+OOOO+++++++X+.  ",
"o ++++++++X+XX+++OOOOOO@@@O@OOOO+++X+X++++++++O.  ",
"o.X+++X+X++++++O++++++O+++OO@O@O@OOOOOO++++++++.  ",
"o XO+++O+O+OO+++++++++XXX++++++OOOOOOOOOOOOOO+O.  ",
"o.+OOO+O+++X+++++++X+XXXX+++++OOOOOOOOOOOOOOOOO.  ",
" .+OO+O++O++++++X+X+X+++++X+++++++O+OOOOOOOOOOOX  ",
".XO@O@O@OOOOOOO+O++++XXXXXXXX+XXX+X++++OOOOO@O@X  ",
" .+O++++OOOOOOOOOOOOOOOOOO+++++++++++++X+++++++.  ",
" .+O+++XXXXXXXXX+++++++OOOOOOOOOOOO++++XXXX+++OX  ",
"# XOOOOOO+O+++++X++++++XXXX++++OO+OOOOOOOOOOO+O.  ",
"o.+++++++O+OO+O+O+X+XXXXX+++++++++++O+O+OOO+O+O.  ",
"  +OXX+XXXXXX++++O+OOOOOOO+O+O++++++XXXXXXXX+++.  ",
"o ++++++++++++++++O+O+O++OO+++O+++++++++X+++++O.  ",
"o.++O+OOOOOOOOOOOO++++++++++O+OOOOOOOO+O+O+O++O.  ",
"o.XO+O++++++O+++++O+OOOOO+++++++++++++++O+O+O+O.  ",
"o ++XXXXXXXXXXXX+X++++++++++++XXXXXXXXXXXXXXXX+.  ",
" ..o oo o o oo o o o o o o o o o o o o oo oo o    ",
"oo#ooooooooooooo#ooo#o###o#oooooooooooooooooooo#  ",
" ooooooooooooooooooooooooooooo#oo#o#o#ooooooooooo "};
