/* XPM */
static char * wall5_xpm[] = {
"50 25 8 1",
" 	c #9E790000D75C",
".	c #CF3C8617FFFF",
"X	c #D75CAEBAFFFF",
"o	c #8E386185A699",
"O	c #EFBEBEFBFFFF",
"+	c #28A200004103",
"@	c #FBEEFBEEFBEE",
"#	c #041004100410",
" ............ . .... ... .. . X...................",
"  ............. . ... . . .. ....................o",
"  .OOXOOO.O.XOOOOOOOOOOXXX.XXXOXOOOOOOOOOOOOOOOXoo",
"  .OOOOXX.OXOXXOOOOOXXOOXXXXXXXXXOOOXXXOOXXXXXXXo+",
"  .XOOXXXOXXOXOOXXXXXXOOOOOXXXXXXOOOXOXXXXXXXOXX+o",
"  XOOOXXXOOXXXXOOOXXXXXOOO@OOXXXXO@OOOOOOXXXXOOOo+",
"  XOOXXXXXXOXXOOOXXXXOXXXOOOOOOOOOOOXOXXXXXXOOOO+o",
"  .OOXOXXXXXXXXOOXXXXXXXXXXOOOXOOOOXXXXOXXXXXOO.oo",
" ..OOOXXOXOXXOOOOXX.XOXXXXXOXXXXXOOOOXOXXXOOXXXO++",
"  OOXXOXXXOOOOOOOOXXXXXXOOXXXXXXXXOOOOXXXXXXXOOOoo",
"  .OOXXXXOOOO@OOOOOOXOOOOXXXOXXXXXOOO@OOXX.XXXOXo+",
"  OOOXXOOOO@OOOOOXXXOOOOXXXXXXX.XXXXOOOOOXXXOXOO+o",
"  XXOOOOOOOOOOXOXXXXXXOO.XXOXX.XXXXXXOOOOOOOXOOXo+",
"  .OOOOOOOOOOXXXXXXXXXOOXOXOXXXXXXXOXOOOOOOOOXOXoo",
"  .XOOOOOOOOOOOXXXXXXXOOXOXOOOOXOOOXOXXOOOOOOOX.o+",
" ..XOOOOOOOOOOOOOOOOOOOOXXXXXXXXXXXXXXXXXXOXOOXO+o",
"  OOOOOOOOXXXXOOOXXXXXOXXXXXXXXXXXXXXXXOOOOOOOOXo+",
"  OOXXXXXXXOXXXXXXXXXXOX.X..X.XXXXXXXOXOXOXOOXXX+o",
"  .XOXXXXOXXXOXXOXXXXXOXXXXOXOXXOOOOOOOOXXXXOOOXo+",
"  .XOOOX.XXOXXXO.XOXXXXOOOOOOOOOOOOOOOOXOXXXXOOO+o",
"  .XOOXXXOXOXXOOOOXXXXXOOO@OOOXXOOOOOOOOXXXXXOOXo+",
"  XX@OOOXOOOO@OO@OOOOOOO@OOOOXOOOO@OOO@OOOOOXOOXoo",
"  oooooooooooooooooooooooooooooooooooooooooooooo++",
"  o+++++++++++++++++++++#+++++++++++++++++++++++oo",
" o#++++++++++++++++++++++++#++++++++++++++++++++++"};
