/* XPM */
static char * wall1_xpm[] = {
"50 25 6 1",
" 	c #DF7DC71B79E7",
".	c #D75CBEFB69A6",
"X	c #D75CAEBA6185",
"o	c #CF3C9E794924",
"O	c #AEBA8E384103",
"+	c #5965492428A2",
"  .  .......X........    .  . ..X....X..XXX.XXoOO+",
"         ......... .  .     . . .X X X  X ..XoO+O+",
" .XX.XXXXooooooXoXXoXXXoXXXX.X.X.XoXXooooooOoOOO++",
".X.XX.XXXXoXooooooooooooooooooooXXX..XX.XXXXoXoOO+",
"  .XXoX...X..oX.XX.XXX.XooooOOoooooXXXoooOoOoooo++",
"XXooooooOooooooooooooXoX.XXXoooXXXoXXXXoXXXoXoooO+",
"ooOooooooooooOOooooooXXXooooXoooooXoooXoooX.ooooO+",
".XXXoooooooXXoXXXoXoooooOooooooOoooooOOOoOOOooooO+",
" .X..... ........XXXXoooXoooooooXoOoooooOoooooooO+",
".oXoXooooooooooXo.o.... .   .......X...X.X..XXooO+",
" X...oXX.XX.oXXX.XXoooooooooooooooooooooooOooX..O+",
".XXooOOoXooooooXXXXXXXoXXXXXX..XX..XXXoXXXXX..XoO+",
"XooX.XX...X....X.XoXX.XXX.X.XXooXoOooOooooooooooO+",
" ....XXXXXXXoooooXXoooooooooXoXXo..X.XXXo...XoXoO+",
".XoooXXXooOXXX....X...X..X. .XXX.ooooooooooooooOO+",
".XoooooX.....X.XX......XXX.X..XoXoooOOooOOoooXooO+",
"oOOo ............o.XXXXoXooooooOOooXX.XXoXXXXX.XO+",
"ooX....X.........Xo.XXXooooooXXX...XXXXXXo.o.Xo.O+",
" XX....  .. ......XXoooooXoooXoXXo.o..XoX.X.X..oO+",
"X.. . ....     .....XXooX.XooooXoX..X...XX...X.o++",
"XO... .      .. .X.XXXXoXoooooooooooXoXX...X..XOO+",
"OOOXX..X.....   ...XXoXXoXoooooOOOOooOOXoXXXXXXO++",
"O+++O+OOOOOOOOOOOXOOOOOOOOOoOOOoOOOOOOOOOOOOOOO+++",
"OO+O++++++++++++++++++++++++++++++++++++++++++++++",
"++++++++++++++++++++++++++++++++++++++++++++++++++"};
