/* XPM */
static char * wall6_xpm[] = {
"25 50 8 1",
" 	c #CF3C8617FFFF",
".	c #8E386185A699",
"X	c #28A200004103",
"o	c #D75CAEBAFFFF",
"O	c #EFBEBEFBFFFF",
"+	c #FBEEFBEEFBEE",
"@	c #9E790000D75C",
"#	c #041004100410",
" ..X.X.X.X.X.X.X.X.X.X.X.",
"  ..X.....X.....X..X...XX",
"  oooo o oOo o oOoooo .XX",
"  oooOOOoOOOOOooooOOoO.XX",
"  OOOOOOOOooOoOOOOOOOO.XX",
"  OooOOooooooOOOOOOooO.XX",
"  OoooooOoooOOOOOooooo.XX",
"  ooooooooooOOOoOooooO.XX",
"  OoooooooooOOOoOOoooO.XX",
"  OoOOoooooOOOOoOOOooO.XX",
"  OooOoooOOOOOOoOoOOOO.XX",
"  OoOOOooOOOOOooooOOo+.XX",
"  OOoOOooOOOOOOoooOOOO.XX",
"  OoOOooOO+OooooooOOOO.XX",
"  OOOOOOOOOooOooOoOOOO.XX",
"  OOOOOOOOoooOooooOOO+.XX",
"  OOOOOOOoooooOoooOOOO.XX",
"  oooOOOooo oooOooOOOO.XX",
"  ooooOOooooooOooooOoO.XX",
"  OoooOoooo ooOoo OOoo.XX",
"@ OoooOOooooooOooooOOo.XX",
" @oooOOOooOoooOoo OOOO.XX",
"  ooOOOOOooOoOooooOOOO.XX",
" @ooo+OoooooooOoo oOO+.XX",
"@ ooOOOooOoooOooo oOOO.XX",
" @OoOOoooOOo ooooooOO+.#X",
"  oOOOooooOOOOOooooOOO.XX",
" @OOOOooooOOOOOOOOOOoO.XX",
"@oOoooooOooOOooOOooooO.XX",
"  OoooooooOOo oOoo  oO.XX",
"@ OOo oo oooooOOoooooO.XX",
"  OoooooooOooooOoooooO.XX",
"  OOoOoooOOooooOooo O+.XX",
" @OOOOOOOOOOoooOOoOOoO.XX",
"@ OOoOOOOOOOooOOooooO+.XX",
"  OoOOoOOOOOOoOOOoOooO.XX",
"@ OoooooOO+OOoOOooO OO.XX",
"  ooOoooOOOOOOOOoooOo+.XX",
"@ OooO oOOO+OOOOoOooOO.XX",
"  oOoOoooOOOOOOOooooOO.XX",
"   oOooOooOOOOOOOoOooO.XX",
"  OooOoooooOO+OOOooooO.XX",
"  oooooOoooOOOOOOooooo.XX",
"  OoooooooooOOOOOOoooO.XX",
"  OOOOoOOooooOOOOooOOO.XX",
"  OOOOOOOoOOOOOOOoOOO+.XX",
"  oooOOOOOOOOOooOOOooO.XX",
"      o O  o    oo    ..X",
" @@@@.@@@@@@@@@@@@@@@@@@X",
"@@@@@@@@ @@@@@ @ @@@@@@@@"};
