/* XPM */
static char * wall8_xpm[] = {
"25 50 7 1",
" 	c #69A679E7F7DE",
".	c #51446185A699",
"X	c #0820186138E3",
"o	c #BEFBC71BFFFF",
"O	c #B6DAB6DAFFFF",
"+	c #FBEEFBEEFBEE",
"@	c #18612081E79D",
" .X..X.X.X.XX.XX.X.X.X.X.",
"  ...X.................XX",
"  ooooooooooOOOOOoooOo.XX",
"  oooOOOoooooOOOoooooo.XX",
"  ooOooOoooooOoOoooOOo.XX",
"  ooOOooOoooooOOoooOOo.XX",
"  OoOOooOOooooOooooOOo.XX",
"  ooOOoOOooOoooooooOOo.XX",
"  ooOooOooOoOooooOoOOo.XX",
" OoooooOooOooooooOOooo.XX",
"  oooooooOOOooooOOoooo.XX",
"  ooooOoOOoOoooOOOoOo+.XX",
"  ooooooOoOOooooOOoooo.XX",
"  ooooooooOoooOoOoooo+.XX",
"  ooOoooooooOOoOoooooo.XX",
"  ooOoOooooooooOOooooo.XX",
"  ooOoOooOoOoooOooooOo.XX",
"  ooooOooooooooOoooOoo.XX",
"  oooooOOoOooooooOOOOo.XX",
"  oooOooOooooooooOOOoo.XX",
"  oooooOooooooOoOooOoo.XX",
"  ooOoooOoooOOOOOoooOo.XX",
"  oooOOoooooOOOooooOOo.XX",
"  oooOOoooooOOoooooOOo.XX",
"  ooooOOooooooooooOOOo.XX",
"  ooooOOoooOooo+ooooOo.XX",
"  oooooooooooooooOoooo.XX",
"  ooooOooOOooo+oOooooo.XX",
"  ooOooooOOo+oooOooooo.XX",
"  oooOooOOoooooOoooOoo.XX",
"  ooOooOOooo+ooOOOoOOo.XX",
"  oooooOOoooooOoOOOOoo.XX",
"  oooooOOoooooOOOoOOoo.XX",
"  ooooOOOooooOOOOOoooo.XX",
"  oooOooooooOOoooooooo.XX",
"  oooOoooooOOoOOoooooo.XX",
"  oooOoooooOOoOooooOOo.XX",
"  oooOOooooOOoooooOOoo.XX",
"  oooOOooOOOoooooOoooo.XX",
"  ooOooooOOOoooooOoooo.XX",
"  ooOoooOOOooooooOoooo.XX",
"  ooOooooOOooooooooooo.XX",
"  ooOooOoOoooooOoooOOo.XX",
"  oooooOOooooOOOooOOoo.XX",
"  ooooOoOoooooOOoOoOoo.XX",
"  ooOoOoOoooooOOOooooo.XX",
"  o+ooOooooooOooooooOo.XX",
"  oOO OOOOOO O O OOOOO XX",
"@@...@@@..@@@@@@@.@@...@X",
"@@@@@@@@@@@@@@@@@@@@@@@@@"};
